<?xml version="1.0" encoding="UTF-8"?>
<svg width="270px" height="150px" viewBox="0 0 270 150" version="1.1" xmlns="http://www.w3.org/2000/svg" xmlns:xlink="http://www.w3.org/1999/xlink">
    <!-- Generator: Sketch 55.1 (78136) - https://sketchapp.com -->
    <title>button/business/none-v2</title>
    <desc>Created with Sketch.</desc>
    <g id="Symbols" stroke="none" stroke-width="1" fill="none" fill-rule="evenodd">
        <g id="pages/index-web" transform="translate(-205.000000, -3220.000000)">
            <g id="Group-5" transform="translate(205.000000, 2776.000000)">
                <g id="Group-24">
                    <g id="Group-28">
                        <g id="Group-2" transform="translate(0.000000, 84.000000)">
                            <g id="button/business/none-v2" transform="translate(0.000000, 360.000000)">
                                <g id="colour/outlines/grey-outline" fill="#FFFFFF" stroke="#CCD4E6">
                                    <rect id="Rectangle-2" x="0.5" y="0.5" width="269" height="149" rx="5"></rect>
                                </g>
                                <g id="Group-2" transform="translate(0.000000, 28.000000)">
                                    <g id="Group-17" transform="translate(0.000000, 74.000000)" fill="#37549C" font-family="GothamRounded-Medium, Gotham Rounded" font-size="18" font-weight="400" line-spacing="22">
                                        <g id="Group">
                                            <text id="Retail">
                                                <tspan x="44.995" y="14">Barbershop &amp; Salon</tspan>
                                            </text>
                                        </g>
                                    </g>
                                    <g id="icon/business/Barbershop" transform="translate(100.000000, 0.000000)">
                                        <g id="Barbershop">
                                            <path d="M63.3264222,61.651759 C62.7686197,61.651759 62.3164314,61.1923769 62.3164314,60.6257003 L62.3164314,43.6526384 C62.3164314,43.0859619 62.7686197,42.6265798 63.3264222,42.6265798 C63.8842247,42.6265798 64.336413,43.0859619 64.336413,43.6526384 L64.336413,60.6257003 C64.336413,61.1923769 63.8842247,61.651759 63.3264222,61.651759 L63.3264222,61.651759 Z" id="Shape" fill="#0BB6EA" fill-rule="nonzero"></path>
                                            <path d="M63.3264222,39.0805212 C62.7686197,39.0805212 62.3164314,38.6211391 62.3164314,38.0544625 L62.3164314,33.5808469 C62.3164314,33.0141704 62.7686197,32.5547883 63.3264222,32.5547883 C63.8842247,32.5547883 64.336413,33.0141704 64.336413,33.5808469 L64.336413,38.0544625 C64.336413,38.6211391 63.8842247,39.0805212 63.3264222,39.0805212 L63.3264222,39.0805212 Z" id="Shape" fill="#0BB6EA" fill-rule="nonzero"></path>
                                            <path d="M58.524926,7.66465798 L58.5148261,7.66465798 L49.8167855,7.54973941 C49.4263237,7.54973941 49.1097919,7.22817195 49.1097919,6.83149837 C49.1097919,6.4348248 49.4263237,6.11325733 49.8167855,6.11325733 L49.8167855,6.11325733 L58.5148261,6.2281759 C58.9052879,6.2281759 59.2218197,6.54974336 59.2218197,6.94641694 C59.2218197,7.34309051 58.9052879,7.66465798 58.5148261,7.66465798 L58.524926,7.66465798 Z" id="Shape" fill="#38569B" fill-rule="nonzero"></path>
                                            <path d="M58.524926,13.0432573 L58.5148261,13.0432573 L49.8167855,12.9283388 C49.4263237,12.9283388 49.1097919,12.6067713 49.1097919,12.2100977 C49.1097919,11.8134241 49.4263237,11.4918567 49.8167855,11.4918567 L49.8167855,11.4918567 L58.5148261,11.6047231 C58.9052879,11.6047231 59.2218197,11.9262906 59.2218197,12.3229642 C59.2218197,12.7196377 58.9052879,13.0412052 58.5148261,13.0412052 L58.524926,13.0432573 Z" id="Shape" fill="#38569B" fill-rule="nonzero"></path>
                                            <path d="M58.524926,18.4157003 L58.5148261,18.4157003 L49.8167855,18.3007818 C49.4263237,18.3007818 49.1097919,17.9792143 49.1097919,17.5825407 C49.1097919,17.1858671 49.4263237,16.8642997 49.8167855,16.8642997 L49.8167855,16.8642997 L58.5148261,16.9792182 C58.9052879,16.9792182 59.2218197,17.3007857 59.2218197,17.6974593 C59.2218197,18.0941329 58.9052879,18.4157003 58.5148261,18.4157003 L58.524926,18.4157003 Z" id="Shape" fill="#38569B" fill-rule="nonzero"></path>
                                            <path d="M58.524926,23.8045603 L58.5148261,23.8045603 L49.8167855,23.6916938 C49.4263237,23.6916938 49.1097919,23.3701263 49.1097919,22.9734528 C49.1097919,22.5767792 49.4263237,22.2552117 49.8167855,22.2552117 L49.8167855,22.2552117 L58.5148261,22.3701303 C58.9052879,22.3701303 59.2218197,22.6916978 59.2218197,23.0883713 C59.2218197,23.4850449 58.9052879,23.8066124 58.5148261,23.8066124 L58.524926,23.8045603 Z" id="Shape" fill="#38569B" fill-rule="nonzero"></path>
                                            <path d="M58.524926,29.1749511 L58.5148261,29.1749511 L49.8167855,29.0620847 C49.4263237,29.0620847 49.1097919,28.7405172 49.1097919,28.3438436 C49.1097919,27.9471701 49.4263237,27.6256026 49.8167855,27.6256026 L49.8167855,27.6256026 L58.5148261,27.7384691 C58.9052879,27.7384691 59.2218197,28.0600365 59.2218197,28.4567101 C59.2218197,28.8533837 58.9052879,29.1749511 58.5148261,29.1749511 L58.524926,29.1749511 Z" id="Shape" fill="#38569B" fill-rule="nonzero"></path>
                                            <path d="M58.524926,34.5473941 L58.5148261,34.5473941 L49.8167855,34.4324756 C49.4263237,34.4324756 49.1097919,34.1109081 49.1097919,33.7142345 C49.1097919,33.317561 49.4263237,32.9959935 49.8167855,32.9959935 L49.8167855,32.9959935 L58.5148261,33.1109121 C58.9052879,33.1109121 59.2218197,33.4324795 59.2218197,33.8291531 C59.2218197,34.2258267 58.9052879,34.5473941 58.5148261,34.5473941 L58.524926,34.5473941 Z" id="Shape" fill="#38569B" fill-rule="nonzero"></path>
                                            <path d="M58.524926,39.9259935 L58.5148261,39.9259935 L49.8167855,39.8110749 C49.4263237,39.8110749 49.1097919,39.4895075 49.1097919,39.0928339 C49.1097919,38.6961603 49.4263237,38.3745928 49.8167855,38.3745928 L49.8167855,38.3745928 L58.5148261,38.4895114 C58.9052879,38.4895114 59.2218197,38.8110789 59.2218197,39.2077524 C59.2218197,39.604426 58.9052879,39.9259935 58.5148261,39.9259935 L58.524926,39.9259935 Z" id="Shape" fill="#38569B" fill-rule="nonzero"></path>
                                            <path d="M58.524926,45.306645 L58.5148261,45.306645 L49.8167855,45.1937785 C49.4263237,45.1937785 49.1097919,44.872211 49.1097919,44.4755375 C49.1097919,44.0788639 49.4263237,43.7572964 49.8167855,43.7572964 L49.8167855,43.7572964 L58.5148261,43.8701629 C58.9052879,43.8701629 59.2218197,44.1917303 59.2218197,44.5884039 C59.2218197,44.9850775 58.9052879,45.306645 58.5148261,45.306645 L58.524926,45.306645 Z" id="Shape" fill="#38569B" fill-rule="nonzero"></path>
                                            <path d="M58.524926,50.6872964 L58.5148261,50.6872964 L49.8167855,50.57443 C49.4263237,50.57443 49.1097919,50.2528625 49.1097919,49.8561889 C49.1097919,49.4595154 49.4263237,49.1379479 49.8167855,49.1379479 L49.8167855,49.1379479 L58.5148261,49.2528664 C58.9052879,49.2528664 59.2218197,49.5744339 59.2218197,49.9711075 C59.2218197,50.3677811 58.9052879,50.6893485 58.5148261,50.6893485 L58.524926,50.6872964 Z" id="Shape" fill="#38569B" fill-rule="nonzero"></path>
                                            <path d="M58.524926,56.0576873 L58.5148261,56.0576873 L49.8167855,55.9448208 C49.4263237,55.9448208 49.1097919,55.6232534 49.1097919,55.2265798 C49.1097919,54.8299062 49.4263237,54.5083388 49.8167855,54.5083388 L49.8167855,54.5083388 L58.5148261,54.6212052 C58.9052879,54.6212052 59.2218197,54.9427727 59.2218197,55.3394463 C59.2218197,55.7361198 58.9052879,56.0576873 58.5148261,56.0576873 L58.524926,56.0576873 Z" id="Shape" fill="#38569B" fill-rule="nonzero"></path>
                                            <path d="M68.4147558,62.3966775 L68.3864761,62.3966775 L47.8432635,61.8857003 C47.2352161,61.8700241 46.7526163,61.360538 46.7604569,60.742671 L47.5160265,1.27641694 C47.5207954,0.974887621 47.6437183,0.687736665 47.8575634,0.478578573 C48.0714084,0.26942048 48.3585213,0.155522514 48.6552961,0.161846039 L69.1985087,0.673094463 C69.806556,0.688770714 70.2891558,1.19825675 70.2813153,1.81612378 L69.5257457,61.2823779 C69.516924,61.8996367 69.0224116,62.3956222 68.4147558,62.3966775 L68.4147558,62.3966775 Z M48.996673,59.657101 L67.3179058,60.112671 L68.0450992,2.90169381 L49.7238663,2.44612378 L48.996673,59.657101 Z" id="Shape" fill="#38569B" fill-rule="nonzero"></path>
                                            <path d="M24.9003128,55.9181433 L24.8215335,55.9181433 C24.3559229,55.9127061 23.9430504,55.6128715 23.787303,55.1670684 L9.4151341,13.9195114 C7.81850437,9.34248403 10.1760957,4.31709609 14.6812261,2.69442997 L14.7458655,2.66775244 C15.3134585,2.49522582 15.9146056,2.80464054 16.113393,3.37162866 L30.9521776,45.9674267 C31.0846041,46.3475655 31.0073454,46.7706007 30.7495041,47.0771793 C30.4916629,47.3837578 30.0924113,47.527303 29.7021436,47.4537428 C29.311876,47.3801826 28.9898831,47.1006925 28.8574567,46.7205537 L14.4125685,5.28625407 C11.6953369,6.85215201 10.4739458,10.1716752 11.513895,13.1643322 L25.7729449,54.0835505 C26.0386554,54.4229155 26.0899204,54.8867634 25.9049061,55.2775407 C25.7198917,55.668318 25.3311912,55.9171828 24.9043528,55.9181433 L24.9003128,55.9181433 Z" id="Shape" fill="#38569B" fill-rule="nonzero"></path>
                                            <path d="M32.6792618,62.9097106 C28.0203374,62.9139969 24.1336061,59.2944193 23.7335298,54.578858 C23.3334534,49.8632967 26.5532085,45.6214563 31.144144,44.8158039 C35.7350794,44.0101514 40.1689758,46.9088707 41.3492357,51.4875194 C42.5294955,56.0661682 40.0632367,60.8006169 35.6728745,62.3843648 C34.7119326,62.732164 33.6993671,62.9097106 32.6792618,62.9097106 L32.6792618,62.9097106 Z M32.6893618,46.9667989 C29.2566824,46.9612257 26.3684787,49.5779524 25.982624,53.0431452 C25.5967692,56.5083379 27.8365969,59.714392 31.183759,60.4879679 C34.5309211,61.2615438 37.9155397,59.3553777 39.043229,56.0616333 C40.1709183,52.7678888 38.6812266,49.1393695 35.5839953,47.635798 C34.6801538,47.1967164 33.6912247,46.9681611 32.6893618,46.9667989 Z" id="Shape" fill="#38569B" fill-rule="nonzero"></path>
                                            <path d="M25.1164508,33.7347557 C24.7511412,33.7334357 24.4097262,33.550082 24.2029205,33.2441531 C23.9961148,32.9382242 23.9502504,32.548673 24.0802003,32.2018241 L31.1864955,13.3633876 C32.2950755,10.3964322 31.1448474,7.04925185 28.4595203,5.42785016 L22.2723168,21.8283713 C22.0358743,22.3837598 21.4103721,22.6509063 20.8543309,22.4339808 C20.2982896,22.2170553 20.0095698,21.593248 20.1998157,21.0198371 L26.8152553,3.48859935 C27.0337748,2.90815801 27.6736711,2.61709274 28.2454023,2.83807818 C32.7077646,4.55750826 34.9546023,9.62511669 33.2650565,14.1596091 L33.2387967,14.2334853 L26.1547214,33.0124104 C25.9882198,33.4475454 25.5759956,33.7343379 25.1164508,33.7347557 Z" id="Shape" fill="#38569B" fill-rule="nonzero"></path>
                                            <path d="M16.7799869,55.8299038 C16.7122407,55.8299038 16.6446263,55.8238334 16.5779887,55.8114332 L16.5234492,55.8011726 C16.1353726,55.7316545 15.8127582,55.4581414 15.6759891,55.0826943 C15.5392199,54.7072471 15.6088418,54.2862665 15.8588753,53.9768404 L19.9109583,43.2483713 C20.1329665,42.6698028 20.7733267,42.3821033 21.3440208,42.6045285 C21.9147148,42.8269536 22.2013489,43.4759445 21.9854794,44.0569055 L17.8162375,55.1055049 C17.6511223,55.5411252 17.2394761,55.8288891 16.7799869,55.8299038 L16.7799869,55.8299038 Z" id="Shape" fill="#38569B" fill-rule="nonzero"></path>
                                            <path d="M11.9340511,47.2418151 C11.7958672,47.2427078 11.6587704,47.2169414 11.5300548,47.1658632 C11.2546752,47.0592829 11.0323756,46.8457368 10.9122351,46.5723714 C10.7920945,46.299006 10.7839935,45.9883033 10.8897206,45.7088599 L16.0245138,32.095114 C16.246522,31.5165455 16.8868822,31.228846 17.4575762,31.4512711 C18.0282703,31.6736963 18.3149044,32.3226872 18.0990349,32.9036482 L12.9642417,46.515342 C12.8010499,46.9500557 12.3920082,47.2384956 11.9340511,47.2418151 L11.9340511,47.2418151 Z" id="Shape" fill="#38569B" fill-rule="nonzero"></path>
                                            <path d="M8.96669819,62.5895765 C6.01999778,62.5869677 3.26299555,61.1123977 1.59315906,58.645873 C-0.0766774411,56.1793483 -0.445783091,53.036327 0.605994471,50.2399349 L0.605994471,50.2399349 C2.22679403,45.9559828 6.7370478,43.571778 11.120566,44.681735 C15.5040843,45.7916921 18.385259,50.0474912 17.8373318,54.6031069 C17.2894046,59.1587225 13.4843224,62.5845402 8.96669819,62.5895765 L8.96669819,62.5895765 Z M8.96669819,46.6466775 C6.17944338,46.6509173 3.68203742,48.396983 2.68253553,51.0402606 L2.68253553,51.0402606 C1.63273018,53.8337708 2.49380677,56.9962368 4.80749227,58.8445644 C7.12117777,60.692892 10.3493843,60.7972205 12.77403,59.1020253 C15.1986758,57.4068301 16.2558671,54.3063583 15.3829569,51.4507102 C14.5100467,48.5950621 11.9100455,46.6483683 8.96669819,46.6466775 L8.96669819,46.6466775 Z" id="Shape" fill="#38569B" fill-rule="nonzero"></path>
                                            <path d="M9.08991707,56.6671661 C7.23466592,56.6671661 5.73068772,55.1392613 5.73068772,53.2544951 C5.73068772,51.369729 7.23466592,49.8418241 9.08991707,49.8418241 C10.9451682,49.8418241 12.4491464,51.369729 12.4491464,53.2544951 C12.4469203,55.1383237 10.9442454,56.6649046 9.08991707,56.6671661 L9.08991707,56.6671661 Z M9.08991707,51.2783062 C8.01558944,51.2783062 7.14467481,52.1630761 7.14467481,53.2544951 C7.14467481,54.3459141 8.01558944,55.230684 9.08991707,55.230684 C10.1642447,55.230684 11.0351593,54.3459141 11.0351593,53.2544951 C11.0340459,52.163545 10.1637832,51.2794373 9.08991707,51.2783062 Z" id="Shape" fill="#38569B" fill-rule="nonzero"></path>
                                            <path d="M32.6853218,56.6671661 C30.8300706,56.6671661 29.3260924,55.1392613 29.3260924,53.2544951 C29.3260924,51.369729 30.8300706,49.8418241 32.6853218,49.8418241 C34.5405729,49.8418241 36.0445511,51.369729 36.0445511,53.2544951 C36.0423251,55.1383237 34.5396501,56.6649046 32.6853218,56.6671661 L32.6853218,56.6671661 Z M32.6853218,51.2783062 C31.6109942,51.2783062 30.7400795,52.1630761 30.7400795,53.2544951 C30.7400795,54.3459141 31.6109942,55.230684 32.6853218,55.230684 C33.7596494,55.230684 34.630564,54.3459141 34.630564,53.2544951 C34.6294507,52.163545 33.7591879,51.2794373 32.6853218,51.2783062 Z" id="Shape" fill="#38569B" fill-rule="nonzero"></path>
                                        </g>
                                    </g>
                                </g>
                            </g>
                        </g>
                    </g>
                </g>
            </g>
        </g>
    </g>
</svg>