<?xml version="1.0" encoding="UTF-8"?>
<svg width="270px" height="150px" viewBox="0 0 270 150" version="1.1" xmlns="http://www.w3.org/2000/svg" xmlns:xlink="http://www.w3.org/1999/xlink">
    <!-- Generator: Sketch 55.1 (78136) - https://sketchapp.com -->
    <title>button/business/none-v2</title>
    <desc>Created with Sketch.</desc>
    <g id="Symbols" stroke="none" stroke-width="1" fill="none" fill-rule="evenodd">
        <g id="pages/index-web" transform="translate(-805.000000, -2860.000000)">
            <g id="Group-5" transform="translate(205.000000, 2776.000000)">
                <g id="Group-24">
                    <g id="Group-28">
                        <g id="Group-2" transform="translate(0.000000, 84.000000)">
                            <g id="Group-10">
                                <g id="v2">
                                    <g id="button/business/none-v2" transform="translate(600.000000, 0.000000)">
                                        <g id="colour/outlines/grey-outline" fill="#FFFFFF" stroke="#CCD4E6">
                                            <rect id="Rectangle-2" x="0.5" y="0.5" width="269" height="149" rx="5"></rect>
                                        </g>
                                        <g id="Group-2" transform="translate(0.000000, 28.000000)">
                                            <g id="Group-17" transform="translate(0.000000, 74.000000)" fill="#37549C" font-family="GothamRounded-Medium, Gotham Rounded" font-size="18" font-weight="400" line-spacing="22">
                                                <g id="Group">
                                                    <text id="Retail">
                                                        <tspan x="45.841" y="14">Restoran Cepat Saji</tspan>
                                                    </text>
                                                </g>
                                            </g>
                                            <g id="icon/business/Quick-Service-Restaurant" transform="translate(100.000000, 0.000000)">
                                                <g id="Quick-Service-Restaurant" transform="translate(4.135021, 0.000000)">
                                                    <path d="M59.6913741,0.718762887 C59.6345191,0.33379313 59.3094352,0.0486688089 58.9261821,0.047628866 L3.19718126,0.047628866 C2.81669311,0.047628866 2.4926163,0.328573275 2.43198921,0.710103093 L0.0149201792,15.9621649 C0.0117076701,17.8952722 1.05969053,19.5335968 2.68465327,20.2758546 C4.30961602,21.0181124 6.21172402,20.7273435 7.54961068,19.5321649 L7.54961068,34.2061856 L2.48527557,34.2061856 C2.05796299,34.2061856 1.7115577,34.5580344 1.7115577,34.9920619 L1.7115577,55.8556701 C1.7115577,56.2896976 2.05796299,56.6415464 2.48527557,56.6415464 L6.90591152,56.6415464 C7.87060131,60.3625044 11.1830553,62.9557264 14.9713341,62.9557264 C18.7596129,62.9557264 22.0720669,60.3625044 23.0367567,56.6415464 L38.8969072,56.6415464 C39.861597,60.3625044 43.174051,62.9557264 46.9623298,62.9557264 C50.7506086,62.9557264 54.0630626,60.3625044 55.0277524,56.6415464 L59.4483884,56.6415464 C59.8757009,56.6415464 60.2221062,56.2896976 60.2221062,55.8556701 L60.2221062,34.9942268 C60.2221062,34.5601993 59.8757009,34.2083505 59.4483884,34.2083505 L54.3797903,34.2083505 L54.3797903,19.5321649 C55.717677,20.7273435 57.619785,21.0181124 59.2447477,20.2758546 C60.8697105,19.5335968 61.9176933,17.8952722 61.9251381,16.085567 C61.9272012,16.0601118 61.1826132,10.9378437 59.6913741,0.718762887 Z M60.1943973,14.8861856 L54.3797903,14.8861856 L54.3797903,1.62154639 L58.2569055,1.62154639 L60.1943973,14.8861856 Z M46.8323111,14.8861856 L46.8323111,1.62154639 L52.8302232,1.62154639 L52.8302232,14.8861856 L46.8323111,14.8861856 Z M45.2848754,14.8861856 L39.2869633,14.8861856 L39.2869633,1.62154639 L45.2848754,1.62154639 L45.2848754,14.8861856 Z M37.7395276,14.8861856 L31.7586672,14.8861856 L31.7586672,1.62154639 L37.7480534,1.62154639 L37.7395276,14.8861856 Z M30.2027056,14.8861856 L24.1941363,14.8861856 L24.1941363,1.62154639 L30.2027056,1.62154639 L30.2027056,14.8861856 Z M22.6467006,14.8861856 L16.6487886,14.8861856 L16.6487886,1.62154639 L22.6467006,1.62154639 L22.6467006,14.8861856 Z M15.1013528,14.8861856 L9.08425769,14.8861856 L9.08425769,1.62154639 L15.1013528,1.62154639 L15.1013528,14.8861856 Z M15.0629866,16.4579381 C14.8787677,17.9771092 13.6083011,19.1183513 12.1013311,19.1183513 C10.5943611,19.1183513 9.32389449,17.9771092 9.1396755,16.4579381 L15.0629866,16.4579381 Z M22.6104659,16.4579381 C22.4302691,17.9810485 21.1580788,19.1272483 19.6477446,19.1272483 C18.1374104,19.1272483 16.8652201,17.9810485 16.6850233,16.4579381 L22.6104659,16.4579381 Z M30.1558137,16.4579381 C29.9715947,17.9771092 28.7011281,19.1183513 27.1941581,19.1183513 C25.6871881,19.1183513 24.4167215,17.9771092 24.2325025,16.4579381 L30.1558137,16.4579381 Z M37.7011614,16.4579381 C37.5169424,17.9771092 36.2464758,19.1183513 34.7395059,19.1183513 C33.2325359,19.1183513 31.9620693,17.9771092 31.7778503,16.4579381 L37.7011614,16.4579381 Z M45.2486407,16.4579381 C45.0684438,17.9810485 43.7962535,19.1272483 42.2859194,19.1272483 C40.7755852,19.1272483 39.5033949,17.9810485 39.3231981,16.4579381 L45.2486407,16.4579381 Z M52.7939884,16.4579381 C52.6097694,17.9771092 51.3393028,19.1183513 49.8323329,19.1183513 C48.3253629,19.1183513 47.0548963,17.9771092 46.8706773,16.4579381 L52.7939884,16.4579381 Z M3.86006351,1.62154639 L7.53682196,1.62154639 L7.53682196,14.8861856 L1.75631824,14.8861856 L3.86006351,1.62154639 Z M4.55491757,19.1100004 C3.04968724,19.1097052 1.78033116,17.9707744 1.59432772,16.4536082 L7.51763887,16.4536082 C7.33153523,17.9715932 6.06096007,19.1107977 4.55491757,19.1100004 Z M14.9713341,61.3741455 C12.2040054,61.3811331 9.70536627,59.6932175 8.64176933,57.0982876 C7.5781724,54.5033578 8.15935173,51.5131162 10.1140156,49.5233932 C12.0686796,47.5336701 15.0113816,46.9368253 17.5684829,48.0114632 C20.1255841,49.086101 21.7928415,51.6203101 21.7919878,54.431134 C21.7931699,58.2602237 18.7411769,61.3669578 14.9713341,61.3741455 Z M40.632765,57.0982876 C39.5691681,54.5033578 40.1503474,51.5131162 42.1050113,49.5233932 C44.0596752,47.5336701 47.0023773,46.9368253 49.5594785,48.0114632 C52.1165798,49.086101 53.7838372,51.6203101 53.7829835,54.431134 C53.7841656,58.2602237 50.7321726,61.3669578 46.9623298,61.3741455 C44.1950011,61.3811331 41.696362,59.6932175 40.632765,57.0982876 Z M58.6746705,55.0589691 L55.2899213,55.0589691 C55.3048414,54.8424742 55.3197616,54.643299 55.3197616,54.4289691 C55.3679574,51.3635276 53.7854617,48.5097602 51.1795203,46.9627337 C48.573579,45.4157071 45.3489492,45.4157071 42.7430079,46.9627337 C40.1370665,48.5097602 38.5545707,51.3635276 38.6027665,54.4289691 C38.6027665,54.6454639 38.6176867,54.851134 38.6326069,55.0589691 L23.2989256,55.0589691 C23.3138458,54.8424742 23.3308974,54.643299 23.3308974,54.4289691 C23.3308974,49.7395591 19.5881934,45.9380412 14.9713341,45.9380412 C10.3544748,45.9380412 6.61177085,49.7395591 6.61177085,54.4289691 C6.61177085,54.6454639 6.62669103,54.851134 6.64161121,55.0589691 L3.25899343,55.0589691 L3.25899343,35.7801031 L58.6768019,35.7801031 L58.6746705,55.0589691 Z M9.10344078,34.2061856 L9.10344078,19.5321649 C10.0848232,20.4083349 11.3897716,20.813526 12.685733,20.6444794 C13.9816944,20.4754327 15.1434983,19.7484757 15.8750707,18.648866 C16.7229366,19.9199399 18.1361558,20.6812624 19.6477446,20.6812624 C21.1593334,20.6812624 22.5725526,19.9199399 23.4204185,18.648866 C24.2682843,19.9199399 25.6815035,20.6812624 27.1930923,20.6812624 C28.7046812,20.6812624 30.1179004,19.9199399 30.9657662,18.648866 C31.8141233,19.9199282 33.2276509,20.6811656 34.7395059,20.6811656 C36.2513608,20.6811656 37.6648884,19.9199282 38.5132455,18.648866 C39.3611113,19.9199399 40.7743305,20.6812624 42.2859194,20.6812624 C43.7975082,20.6812624 45.2107274,19.9199399 46.0585932,18.648866 C46.7901656,19.7484757 47.9519695,20.4754327 49.2479309,20.6444794 C50.5438923,20.813526 51.8488408,20.4083349 52.8302232,19.5321649 L52.8302232,34.2061856 L9.10344078,34.2061856 Z M57.3787464,19.1100004 C55.8727039,19.1107977 54.6021287,17.9715932 54.4160251,16.4536082 L60.3393362,16.4536082 C60.1533328,17.9707744 58.8839767,19.1097052 57.3787464,19.1100004 Z" id="Shape" stroke="#37549A" stroke-width="0.5" fill="#37549A" fill-rule="nonzero" stroke-linecap="round" stroke-linejoin="round"></path>
                                                    <path d="M46.9623298,50.8156642 C45.5220559,50.8130421 44.2221614,51.6922535 43.6691987,53.0430496 C43.1162361,54.3938457 43.4191938,55.9499853 44.436707,56.9853479 C45.4542201,58.0207104 46.9857372,58.3312264 48.316627,57.772004 C49.6475168,57.2127816 50.5154646,55.8940432 50.5154646,54.431134 C50.516642,52.4364086 48.9261934,50.8180601 46.9623298,50.8156642 L46.9623298,50.8156642 Z M46.9623298,56.4727093 C46.1475583,56.4770638 45.4106118,55.9819183 45.0958174,55.2185932 C44.781023,54.4552681 44.9505286,53.5744619 45.5251352,52.987718 C46.0997419,52.400974 46.9660086,52.2241296 47.7191853,52.5398125 C48.4723621,52.8554954 48.9637699,53.6013824 48.9637699,54.4289691 C48.9661235,55.5544463 48.0703914,56.4690986 46.9623298,56.4727093 Z" id="Shape" fill="#37549A" fill-rule="nonzero"></path>
                                                    <path d="M14.9713341,50.8156538 C13.5306773,50.811289 12.2294768,51.6893853 11.6751699,53.0400388 C11.1208631,54.3906924 11.422765,55.94754 12.4399394,56.9838011 C13.4571138,58.0200622 14.988963,58.3313752 16.3203765,57.7724103 C17.65179,57.2134453 18.520206,55.8944363 18.520206,54.431134 C18.5213866,52.4380961 16.9335321,50.8204463 14.9713341,50.8156538 Z M14.9713341,56.4727093 C14.1565626,56.4770638 13.4196161,55.9819183 13.1048217,55.2185932 C12.7900273,54.4552681 12.9595329,53.5744619 13.5341395,52.987718 C14.1087462,52.400974 14.9750129,52.2241296 15.7281896,52.5398125 C16.4813664,52.8554954 16.9727742,53.6013824 16.9727742,54.4289691 C16.9751278,55.5544463 16.0793958,56.4690986 14.9713341,56.4727093 L14.9713341,56.4727093 Z" id="Shape" fill="#37549A" fill-rule="nonzero"></path>
                                                    <path d="M42.2859194,41.3028866 L54.4160251,41.3028866" id="Shape" stroke="#0BB6EA" stroke-width="1.86666667" stroke-linecap="round" stroke-linejoin="round"></path>
                                                    <path d="M8.15920658,41.3028866 L37.2791335,41.3028866" id="Shape" stroke="#0BB6EA" stroke-width="1.86666667" stroke-linecap="round" stroke-linejoin="round"></path>
                                                </g>
                                            </g>
                                        </g>
                                    </g>
                                </g>
                            </g>
                        </g>
                    </g>
                </g>
            </g>
        </g>
    </g>
</svg>