<?xml version="1.0" encoding="UTF-8"?>
<svg width="270px" height="150px" viewBox="0 0 270 150" version="1.1" xmlns="http://www.w3.org/2000/svg" xmlns:xlink="http://www.w3.org/1999/xlink">
    <!-- Generator: Sketch 55.1 (78136) - https://sketchapp.com -->
    <title>button/business/none-v2</title>
    <desc>Created with Sketch.</desc>
    <g id="Symbols" stroke="none" stroke-width="1" fill="none" fill-rule="evenodd">
        <g id="pages/index-web-v2" transform="translate(-505.000000, -3220.000000)">
            <g id="Group-5" transform="translate(205.000000, 2776.000000)">
                <g id="Group-24">
                    <g id="Group-28">
                        <g id="Group-10" transform="translate(0.000000, 84.000000)">
                            <g id="v2">
                                <g id="Group" transform="translate(300.000000, 360.000000)">
                                    <g id="button/business/none-v2">
                                        <g id="colour/outlines/grey-outline" fill="#FFFFFF" stroke="#CCD4E6">
                                            <rect id="Rectangle-2" x="0.5" y="0.5" width="269" height="149" rx="5"></rect>
                                        </g>
                                        <g id="Group-2" transform="translate(0.000000, 28.000000)">
                                            <g id="Group-17" transform="translate(0.000000, 74.000000)" fill="#37549C" font-family="GothamRounded-Medium, Gotham Rounded" font-size="18" font-weight="400" line-spacing="22">
                                                <g id="Group">
                                                    <text id="Retail">
                                                        <tspan x="44.275" y="14">Layanan Kecantikan</tspan>
                                                    </text>
                                                </g>
                                            </g>
                                            <g id="icon/business/Layanan-Kecantikan" transform="translate(100.000000, 0.000000)">
                                                <g id="Hair-Dryer" transform="translate(6.202532, 0.000000)">
                                                    <path d="M34.5844408,11.5477095 C34.2673614,11.5466619 33.9767163,11.3676449 33.8287707,11.0822334 C33.680825,10.7968219 33.6997349,10.451617 33.877936,10.1847091 C34.06199,9.9094435 34.2204382,9.61732188 34.3512256,9.31213296 C34.8056523,8.24759003 35.2274974,7.39246537 36.1569285,6.92301939 C36.5831089,6.70760539 37.1001885,6.88457693 37.3118582,7.3182964 C37.5235278,7.75201586 37.3496324,8.27824251 36.923452,8.49365651 C36.5444773,8.68562327 36.2992584,9.13761773 35.9254281,10.0154294 C35.7519267,10.4218677 35.540613,10.8104804 35.2943753,11.1759557 C35.1323103,11.4112691 34.8667926,11.5502926 34.5844408,11.5477095 L34.5844408,11.5477095 Z" id="Shape" fill="#00B8EC" fill-rule="nonzero"></path>
                                                    <path d="M17.606032,20.9121607 C17.2092553,20.9121607 16.8643171,20.6350813 16.7721214,20.2423378 C16.6799256,19.8495944 16.8645584,19.4437764 17.2184832,19.2612465 L31.1085056,12.0973961 C31.3819899,11.9543785 31.7097868,11.9713442 31.9676029,12.1418601 C32.225419,12.3123761 32.373777,12.6103326 32.3564229,12.9227512 C32.3390688,13.2351698 32.1586599,13.5142123 31.8836031,13.654072 L17.9935808,20.8091967 C17.8741973,20.8741749 17.7413909,20.9094589 17.606032,20.9121607 L17.606032,20.9121607 Z" id="Shape" fill="#00B8EC" fill-rule="nonzero"></path>
                                                    <path d="M12.549035,43.279786 C6.35922423,43.2866324 1.10892641,38.6548379 0.237189309,32.4183108 C-0.634547789,26.1817838 3.13830356,20.243723 9.08445191,18.4936745 C15.0306003,16.7436261 21.3354615,19.7156516 23.8692282,25.4630163 C26.4029949,31.2103809 24.3924383,37.9791634 19.1545123,41.3356787 C17.176107,42.6029021 14.8866817,43.2767173 12.549035,43.279786 Z M12.5078794,19.7202216 C7.61973241,19.7280254 3.35587912,23.1002607 2.14145603,27.9189135 C0.927032931,32.7375663 3.06966445,37.7820279 7.35069375,40.183178 C11.6317231,42.5843281 16.9667265,41.7339336 20.3213332,38.1156702 C23.67594,34.4974068 24.2003978,29.0278137 21.5964125,24.8178116 L21.5964125,24.8178116 C19.6253447,21.6459776 16.1955513,19.7222699 12.5078794,19.7202216 L12.5078794,19.7202216 Z" id="Shape" fill="#37549C" fill-rule="nonzero"></path>
                                                    <path d="M12.5387461,36.5975941 C9.61461852,36.6010572 7.13419777,34.4130629 6.72230984,31.466876 C6.3104219,28.5206892 8.09277308,25.7154724 10.9018153,24.8888128 C13.7108575,24.0621532 16.689284,25.4663434 17.8860449,28.1815537 C19.0828058,30.896764 18.1326551,34.0943248 15.6579993,35.6796399 C14.7237093,36.2779419 13.6426141,36.5960922 12.5387461,36.5975941 L12.5387461,36.5975941 Z M12.5215979,26.3989197 C10.6275688,26.403203 8.97629581,27.7110087 8.50703164,29.5784501 C8.03776746,31.4458915 8.86939152,33.3998868 10.5288717,34.3289933 C12.1883519,35.2580998 14.2552895,34.9269455 15.5539997,33.5238927 C16.8527099,32.1208399 17.0541884,30.0013261 16.0438332,28.3709418 C15.2842451,27.1357745 13.9499324,26.3894489 12.5181683,26.3989197 L12.5215979,26.3989197 Z" id="Shape" fill="#37549C" fill-rule="nonzero"></path>
                                                    <path d="M22.7247625,59.4747987 C21.1758429,59.4774286 19.7342183,58.6700475 18.9075786,57.3369806 L9.8464825,42.6986427 C9.67803868,42.4347947 9.66222099,42.09909 9.80508509,41.8200503 C9.94794919,41.5410106 10.2273666,41.361857 10.5363646,41.3511768 C10.8453627,41.3404966 11.1360801,41.4999442 11.2972182,41.7684765 L20.3583142,56.4068144 C21.1803204,57.7305759 22.8998439,58.1278642 24.2029352,57.295097 L29.3645361,53.9793075 C30.6644556,53.142162 31.0546658,51.3929926 30.2373783,50.0666759 L21.9702427,36.7127701 C21.7258775,36.305542 21.8482513,35.7740754 22.2449494,35.5197249 C22.6416475,35.2653745 23.165534,35.3824794 23.4209784,35.7826039 L31.6881139,49.1365097 C33.0100858,51.2782376 32.3793995,54.1047825 30.2785339,55.4557064 L25.116933,58.7714958 C24.4010025,59.2315744 23.5714818,59.4754529 22.7247625,59.4747987 L22.7247625,59.4747987 Z" id="Shape" fill="#37549C" fill-rule="nonzero"></path>
                                                    <path d="M21.7781832,38.5767148 C21.4139206,38.5774171 21.0889088,38.3439208 20.9677149,37.994333 C20.8465211,37.6447452 20.9556041,37.255387 21.2397305,37.0234072 L37.1875339,23.9871191 C37.5099196,23.6921884 40.2467684,21.3030748 44.1102524,21.866759 C45.4478101,22.0604709 46.5350045,21.6713019 47.0906054,20.7987258 C47.5825572,19.9932594 47.5657884,18.9693324 47.0477349,18.1809972 L38.4736471,4.31401662 C37.9978611,3.4942325 37.0935024,3.03507907 36.1637878,3.14127424 C35.1503306,3.27390582 34.3357923,4.10459834 33.9345249,5.4099723 C32.7564453,9.22313019 29.4262695,10.6995291 29.0575838,10.8531025 L7.62922338,20.9139058 C7.19925469,21.1158263 6.68985258,20.9247908 6.49144192,20.4872161 C6.29303126,20.0496413 6.48074613,19.531228 6.91071482,19.3293075 L28.3562234,9.25803324 L28.4042383,9.23883657 C28.4299605,9.2266205 31.3194281,8.01722992 32.2951593,4.88817175 C32.8987751,2.92836565 34.2637699,1.62648199 35.9425763,1.39786704 C37.5350624,1.20046316 39.0931487,1.97245061 39.9226679,3.3698892 L48.5070447,17.2368698 C49.3879598,18.6012926 49.3993747,20.3649944 48.5361966,21.741108 C47.6153395,23.1878393 45.8713701,23.8771745 43.8736076,23.5874792 C40.6771876,23.1215235 38.3604691,25.2610803 38.3364617,25.2820222 L38.2901616,25.3239058 L22.3183507,38.3933518 C22.164062,38.5152684 21.9734926,38.5799153 21.7781832,38.5767148 L21.7781832,38.5767148 Z" id="Shape" fill="#37549C" fill-rule="nonzero"></path>
                                                    <path d="M27.306755,61.0087823 C27.0636181,61.0091864 26.8317445,60.9045199 26.6688429,60.720831 L24.5218913,58.2968144 C24.3540635,58.1069988 24.2763559,57.8518949 24.3092539,57.5987535 C24.3437902,57.3433449 24.4875436,57.1165534 24.7019471,56.9792244 L28.8655242,54.3108864 C29.0796775,54.1735794 29.3425016,54.1395834 29.5835974,54.2180046 C29.8246932,54.2964258 30.0194226,54.4792501 30.1156262,54.7175069 L31.3365763,57.7331302 C31.4946073,58.1276177 31.3496302,58.5805707 30.9936128,58.8046537 L27.7628965,60.8744044 C27.6263131,60.9620078 27.4682012,61.0085866 27.306755,61.0087823 L27.306755,61.0087823 Z M26.4784981,57.8989197 L27.4593738,59.0070914 L29.4759993,57.7139335 L28.9169687,56.3352632 L27.6977334,57.1170914 L27.6977334,57.1170914 L26.4784981,57.8989197 Z" id="Shape" fill="#37549C" fill-rule="nonzero"></path>
                                                    <path d="M30.738105,62.9005263 C30.4425442,62.9018826 30.1671356,62.7482229 30.0093075,62.4939058 L28.1950305,59.563795 C28.0323732,59.2994383 28.0206528,58.9668508 28.1642843,58.6913152 C28.3079157,58.4157796 28.5850781,58.2391561 28.8913669,58.2279772 C29.1976558,58.2167983 29.4865385,58.3727624 29.6491958,58.6371191 L31.4634728,61.5672299 C31.629424,61.8360341 31.6388315,62.1753531 31.4880377,62.4532524 C31.3372438,62.7311517 31.050043,62.9037804 30.738105,62.9040166 L30.738105,62.9005263 Z" id="Shape" fill="#37549C" fill-rule="nonzero"></path>
                                                    <path d="M49.0540715,12.528449 C48.6720405,12.5287666 48.3358896,12.2718223 48.2297303,11.8983454 C48.123571,11.5248685 48.2730167,11.1249687 48.5962152,10.9176731 L55.0730812,6.76421053 C55.3323429,6.59278697 55.6622122,6.57668946 55.9364015,6.7220808 C56.2105909,6.86747214 56.3866304,7.15183235 56.397125,7.46629654 C56.4076195,7.78076074 56.2509434,8.07662087 55.9870789,8.24060942 L49.510213,12.3905817 C49.3739922,12.4794138 49.2158547,12.5272103 49.0540715,12.528449 L49.0540715,12.528449 Z" id="Shape" fill="#37549C" fill-rule="nonzero"></path>
                                                    <path d="M44.9968131,5.9736568 C44.6147821,5.9739744 44.2786312,5.71703001 44.1724719,5.34355312 C44.0663127,4.97007623 44.2157584,4.57017642 44.5389568,4.36288089 L51.0158228,0.209418283 C51.2750845,0.0379947217 51.6049538,0.0218972165 51.8791432,0.167288559 C52.1533325,0.312679901 52.3293721,0.597040103 52.3398666,0.911504298 C52.3503611,1.22596849 52.1936851,1.52182862 51.9298206,1.68581717 L45.4529546,5.83927978 C45.3163711,5.9268831 45.1582593,5.97346197 44.9968131,5.9736568 Z" id="Shape" fill="#37549C" fill-rule="nonzero"></path>
                                                    <path d="M47.0254423,9.24930777 C46.6434113,9.24962537 46.3072604,8.99268098 46.2011011,8.61920409 C46.0949419,8.2457272 46.2443875,7.84582739 46.567586,7.63853186 L56.8925026,1.01916898 C57.1517643,0.847745414 57.4816336,0.831647909 57.755823,0.977039251 C58.0300123,1.12243059 58.2060519,1.4067908 58.2165464,1.72125499 C58.2270409,2.03571919 58.0703649,2.33157932 57.8065004,2.49556787 L47.4815838,9.11493075 C47.3450003,9.20253407 47.1868885,9.24911294 47.0254423,9.24930777 Z" id="Shape" fill="#37549C" fill-rule="nonzero"></path>
                                                </g>
                                            </g>
                                        </g>
                                    </g>
                                </g>
                            </g>
                        </g>
                    </g>
                </g>
            </g>
        </g>
    </g>
</svg>