<?xml version="1.0" encoding="UTF-8"?>
<svg width="270px" height="150px" viewBox="0 0 270 150" version="1.1" xmlns="http://www.w3.org/2000/svg" xmlns:xlink="http://www.w3.org/1999/xlink">
    <!-- Generator: Sketch 55.1 (78136) - https://sketchapp.com -->
    <title>button/business/none-v2</title>
    <desc>Created with Sketch.</desc>
    <g id="Symbols" stroke="none" stroke-width="1" fill="none" fill-rule="evenodd">
        <g id="pages/index-web-v2" transform="translate(-805.000000, -3220.000000)">
            <g id="Group-5" transform="translate(205.000000, 2776.000000)">
                <g id="Group-24">
                    <g id="Group-28">
                        <g id="Group-10" transform="translate(0.000000, 84.000000)">
                            <g id="v2">
                                <g id="Group" transform="translate(300.000000, 360.000000)">
                                    <g id="button/business/none-v2" transform="translate(300.000000, 0.000000)">
                                        <g id="colour/outlines/grey-outline" fill="#FFFFFF" stroke="#CCD4E6">
                                            <rect id="Rectangle-2" x="0.5" y="0.5" width="269" height="149" rx="5"></rect>
                                        </g>
                                        <g id="Group-2" transform="translate(0.000000, 28.000000)">
                                            <g id="Group-17" transform="translate(0.000000, 74.000000)" fill="#37549C" font-family="GothamRounded-Medium, Gotham Rounded" font-size="18" font-weight="400" line-spacing="22">
                                                <g id="Group">
                                                    <text id="Retail">
                                                        <tspan x="43.546" y="14">Layanan Profesional</tspan>
                                                    </text>
                                                </g>
                                            </g>
                                            <g id="icon/business/Bakery-Copy" transform="translate(100.000000, 0.000000)">
                                                <g id="Work-Bag" transform="translate(0.827004, 0.000000)">
                                                    <path d="M26.7750035,56.1379412 L1.01551253,56.1379412 C0.454660448,56.1379412 0,55.6770578 0,55.1085294 C0,54.540001 0.454660448,54.0791176 1.01551253,54.0791176 L26.7750035,54.0791176 C27.3358556,54.0791176 27.790516,54.540001 27.790516,55.1085294 C27.790516,55.6770578 27.3358556,56.1379412 26.7750035,56.1379412 L26.7750035,56.1379412 Z" id="Shape" fill="#00B8EC" fill-rule="nonzero"></path>
                                                    <path d="M39.1500392,56.1379412 L32.5898282,56.1379412 C32.0289762,56.1379412 31.5743157,55.6770578 31.5743157,55.1085294 C31.5743157,54.540001 32.0289762,54.0791176 32.5898282,54.0791176 L39.1500392,54.0791176 C39.7108913,54.0791176 40.1655517,54.540001 40.1655517,55.1085294 C40.1655517,55.6770578 39.7108913,56.1379412 39.1500392,56.1379412 L39.1500392,56.1379412 Z" id="Shape" fill="#00B8EC" fill-rule="nonzero"></path>
                                                    <path d="M62.4479278,62.9855882 L6.60692455,62.9855882 C2.9594132,62.9821831 0.00335918373,59.9856698 0,56.2882353 L0,18.4264706 C0.00671554287,14.7314484 2.96178828,11.7386924 6.60692455,11.7352941 L62.4479278,11.7352941 C66.093064,11.7386924 69.0481368,14.7314484 69.0548523,18.4264706 L69.0548523,56.2882353 C69.0514931,59.9856698 66.0954391,62.9821831 62.4479278,62.9855882 Z M6.60692455,13.7941176 C4.08302791,13.7963805 2.03662031,15.8680349 2.03102507,18.4264706 L2.03102507,56.2882353 C2.03438163,58.8486137 4.08111669,60.9233622 6.60692455,60.9267647 L62.4479278,60.9267647 C64.9737356,60.9233622 67.0204707,58.8486137 67.0238273,56.2882353 L67.0238273,18.4264706 C67.018232,15.8680349 64.9718244,13.7963805 62.4479278,13.7941176 L6.60692455,13.7941176 Z" id="Shape" fill="#37549C" fill-rule="nonzero"></path>
                                                    <path d="M29.9048131,32.5294118 L1.01551253,32.5294118 C0.454660448,32.5294118 0,32.0685284 0,31.5 C0,30.9314716 0.454660448,30.4705882 1.01551253,30.4705882 L29.9048131,30.4705882 C30.4656652,30.4705882 30.9203256,30.9314716 30.9203256,31.5 C30.9203256,32.0685284 30.4656652,32.5294118 29.9048131,32.5294118 Z" id="Shape" fill="#37549C" fill-rule="nonzero"></path>
                                                    <path d="M68.0393398,32.5294118 L39.1500392,32.5294118 C38.5891871,32.5294118 38.1345267,32.0685284 38.1345267,31.5 C38.1345267,30.9314716 38.5891871,30.4705882 39.1500392,30.4705882 L68.0393398,30.4705882 C68.6001919,30.4705882 69.0548523,30.9314716 69.0548523,31.5 C69.0548523,32.0685284 68.6001919,32.5294118 68.0393398,32.5294118 Z" id="Shape" fill="#37549C" fill-rule="nonzero"></path>
                                                    <path d="M46.0839588,13.7941176 C45.5231067,13.7941176 45.0684463,13.3332343 45.0684463,12.7647059 L45.0684463,5.72970588 C45.0662077,3.71123363 43.4525644,2.07550452 41.4613457,2.07323529 L27.5935066,2.07323529 C25.602288,2.07550452 23.9886446,3.71123363 23.9864061,5.72970588 L23.9864061,12.7647059 C23.9864061,13.3332343 23.5317456,13.7941176 22.9708935,13.7941176 C22.4100414,13.7941176 21.955381,13.3332343 21.955381,12.7647059 L21.955381,5.72970588 C21.9587392,2.57464721 24.4810479,0.017815895 27.5935066,0.0144117647 L41.4613457,0.0144117647 C44.5738045,0.017815895 47.0961132,2.57464721 47.0994713,5.72970588 L47.0994713,12.7647059 C47.0994713,13.3332343 46.6448109,13.7941176 46.0839588,13.7941176 L46.0839588,13.7941176 Z" id="Shape" fill="#37549C" fill-rule="nonzero"></path>
                                                    <path d="M34.5274262,41.9011765 C31.4204996,41.884295 28.9059541,39.3353331 28.8893006,36.1858824 L28.8893006,29.1591176 C28.8893006,26.0026479 31.4135754,23.4438235 34.5274262,23.4438235 C37.6412769,23.4438235 40.1655517,26.0026479 40.1655517,29.1591176 L40.1655517,36.1858824 C40.1621936,39.340941 37.6398849,41.8977723 34.5274262,41.9011765 L34.5274262,41.9011765 Z M34.5274262,25.5005882 C32.535879,25.5039914 30.9225618,27.1403108 30.9203256,29.1591176 L30.9203256,36.1858824 C30.9203256,38.2052952 32.5352796,39.8423528 34.5274262,39.8423528 C36.5195727,39.8423528 38.1345267,38.2052952 38.1345267,36.1858824 L38.1345267,29.1591176 C38.1169,27.1468162 36.5125471,25.5195889 34.5274262,25.5005882 L34.5274262,25.5005882 Z" id="Shape" fill="#37549C" fill-rule="nonzero"></path>
                                                </g>
                                            </g>
                                        </g>
                                    </g>
                                </g>
                            </g>
                        </g>
                    </g>
                </g>
            </g>
        </g>
    </g>
</svg>