<?xml version="1.0" encoding="UTF-8"?>
<svg width="270px" height="150px" viewBox="0 0 270 150" version="1.1" xmlns="http://www.w3.org/2000/svg" xmlns:xlink="http://www.w3.org/1999/xlink">
    <!-- Generator: Sketch 55.1 (78136) - https://sketchapp.com -->
    <title>button/business/none-v2</title>
    <desc>Created with Sketch.</desc>
    <g id="Symbols" stroke="none" stroke-width="1" fill="none" fill-rule="evenodd">
        <g id="pages/index-web" transform="translate(-505.000000, -2860.000000)">
            <g id="Group-5" transform="translate(205.000000, 2776.000000)">
                <g id="Group-24">
                    <g id="Group-28">
                        <g id="Group-2" transform="translate(0.000000, 84.000000)">
                            <g id="Group-10">
                                <g id="v2">
                                    <g id="button/business/none-v2" transform="translate(300.000000, 0.000000)">
                                        <g id="colour/outlines/grey-outline" fill="#FFFFFF" stroke="#CCD4E6">
                                            <rect id="Rectangle-2" x="0.5" y="0.5" width="269" height="149" rx="5"></rect>
                                        </g>
                                        <g id="Group-2" transform="translate(0.000000, 28.000000)">
                                            <g id="Group-17" transform="translate(0.000000, 74.000000)" fill="#37549C" font-family="GothamRounded-Medium, Gotham Rounded" font-size="18" font-weight="400" line-spacing="22">
                                                <g id="Group">
                                                    <text id="Retail">
                                                        <tspan x="94.396" y="14">Restoran</tspan>
                                                    </text>
                                                </g>
                                            </g>
                                            <g id="icon/business/Full-Service-Restaurant" transform="translate(100.000000, 0.000000)" stroke-linecap="round" stroke-linejoin="round">
                                                <g id="Full-Service-Restaurant" transform="translate(4.135021, 0.000000)">
                                                    <path d="M6.65187914,44.6363777 C7.07609755,44.6363777 7.41999451,44.2870766 7.41999451,43.856192 L7.41999451,40.6086687 C7.41999451,40.1740138 7.07308845,39.8216563 6.64515813,39.8216563 C6.21722781,39.8216563 5.87032175,40.1740138 5.87032175,40.6086687 L5.87032175,43.8503406 C5.8687369,44.0606589 5.95082152,44.2627184 6.09796379,44.410704 C6.24510606,44.5586897 6.44484039,44.6400645 6.65187914,44.6363777 Z" id="Shape" stroke="#37549A" stroke-width="0.648869114" fill="#37549A" fill-rule="nonzero"></path>
                                                    <path d="M60.3681075,0.756780186 C60.3388631,0.348128617 60.0033815,0.0320797582 59.5999922,0.0331551446 L2.34659247,0.0331551446 C1.94320316,0.0320797582 1.60772152,0.348128617 1.57847709,0.756780186 L0.00576086531,20.651517 C0.00500090639,22.2184241 0.650948415,23.5529464 1.75322334,24.4178638 L1.75322334,62.1691022 C1.75322334,62.5999869 2.09712031,62.9492879 2.52133872,62.9492879 L59.6115139,62.9492879 C60.0357323,62.9492879 60.3796293,62.5999869 60.3796293,62.1691022 L60.3796293,24.2540248 C61.3646285,23.3864196 61.9312605,22.1279232 61.9331426,20.8036533 C61.9301538,20.7407199 61.4084755,14.0584288 60.3681075,0.756780186 Z M57.3935808,23.8268735 C56.0110739,23.8276052 54.8078756,22.8666883 54.4824235,21.5019195 L60.2970569,21.5019195 C59.972282,22.8638605 58.7732197,23.8240076 57.3935808,23.8268735 L57.3935808,23.8268735 Z M19.646471,23.8268737 C18.2642054,23.8268737 17.0613866,22.866283 16.7353137,21.5019195 L22.5595485,21.5019195 C22.2333068,22.8669908 21.0294533,23.8277972 19.646471,23.8268737 L19.646471,23.8268737 Z M1.63800604,21.5019195 L7.46032057,21.5019195 C7.13432954,22.8663673 5.93149017,23.8270851 4.5491633,23.8270851 C3.16683644,23.8270851 1.96399707,22.8663673 1.63800604,21.5019195 L1.63800604,21.5019195 Z M46.8435161,19.9298452 L46.8435161,1.61303406 L52.9769173,1.61303406 L52.9769173,19.9298452 L46.8435161,19.9298452 Z M45.2957636,19.9298452 L39.2948622,19.9298452 L39.2948622,1.61303406 L45.2957636,1.61303406 L45.2957636,19.9298452 Z M37.7471098,19.9298452 L31.736607,19.9298452 L31.736607,1.61303406 L37.7471098,1.61303406 L37.7471098,19.9298452 Z M30.1869342,19.9298452 L24.1956343,19.9298452 L24.1956343,1.61303406 L30.1869342,1.61303406 L30.1869342,19.9298452 Z M22.6478818,19.9298452 L16.6469804,19.9298452 L16.6469804,1.61303406 L22.6478818,1.61303406 L22.6478818,19.9298452 Z M15.099228,19.9298452 L9.09832661,19.9298452 L9.09832661,1.61303406 L15.099228,1.61303406 L15.099228,19.9298452 Z M15.0089744,21.5019195 C14.6829834,22.8663673 13.480144,23.8270851 12.0978171,23.8270851 C10.7154903,23.8270851 9.51265091,22.8663673 9.18665987,21.5019195 L15.0089744,21.5019195 Z M30.1082024,21.5019195 C29.7822113,22.8663673 28.579372,23.8270851 27.1970451,23.8270851 C25.8147182,23.8270851 24.6118789,22.8663673 24.2858878,21.5019195 L30.1082024,21.5019195 Z M37.6568562,21.5019195 C37.3308652,22.8663673 36.1280258,23.8270851 34.7456989,23.8270851 C33.3633721,23.8270851 32.1605327,22.8663673 31.8345417,21.5019195 L37.6568562,21.5019195 Z M45.2074303,21.5019195 C44.8798514,22.8654062 43.6770959,23.8247941 42.2953129,23.8247941 C40.91353,23.8247941 39.7107744,22.8654062 39.3831955,21.5019195 L45.2074303,21.5019195 Z M52.7560842,21.5019195 C52.4300931,22.8663673 51.2272538,23.8270851 49.8449269,23.8270851 C48.4626,23.8270851 47.2597607,22.8663673 46.9337696,21.5019195 L52.7560842,21.5019195 Z M60.3297018,19.9298452 L54.5361916,19.9298452 L54.5361916,1.61303406 L58.8914057,1.61303406 L60.3297018,19.9298452 Z M3.06093977,1.61303406 L7.54865384,1.61303406 L7.54865384,19.9298452 L1.61304229,19.9298452 L3.06093977,1.61303406 Z M4.5491633,25.4086997 C6.06248968,25.409088 7.47719178,24.646037 8.32445037,23.3724149 C9.17145466,24.6458599 10.5857377,25.4089863 12.0987773,25.4089863 C13.6118168,25.4089863 15.0260999,24.6458599 15.8731042,23.3724149 C16.7197487,24.6457286 18.13374,25.4087843 19.646471,25.4086997 C19.7789709,25.4086997 19.9095505,25.4086997 20.0401301,25.3872446 L20.0401301,56.1402167 L3.29713524,56.1402167 L3.29713524,25.2195046 C3.70420054,25.3385375 4.12556645,25.3995848 4.5491633,25.4008978 L4.5491633,25.4086997 Z M3.29713524,57.7200929 L20.0401301,57.7200929 L20.0401301,61.3908669 L3.29713524,61.3908669 L3.29713524,57.7200929 Z M21.5878826,61.3908669 L21.5878826,47.9365635 L58.8414782,47.9365635 L58.8414782,61.383065 L21.5878826,61.3908669 Z M58.8414782,46.372291 L50.7321002,46.372291 L50.7321002,42.6664087 L55.0047419,42.6664087 C55.4326723,42.6664087 55.7795783,42.3140512 55.7795783,41.8793963 C55.7795783,41.4447413 55.4326723,41.0923839 55.0047419,41.0923839 L44.9117059,41.0923839 C44.4837756,41.0923839 44.1368695,41.4447413 44.1368695,41.8793963 C44.1368695,42.3140512 44.4837756,42.6664087 44.9117059,42.6664087 L49.1843477,42.6664087 L49.1843477,46.372291 L31.3256652,46.372291 L31.3256652,42.6664087 L35.598307,42.6664087 C36.0262373,42.6664087 36.3731434,42.3140512 36.3731434,41.8793963 C36.3731434,41.4447413 36.0262373,41.0923839 35.598307,41.0923839 L25.5110319,41.0923839 C25.0831015,41.0923839 24.7361955,41.4447413 24.7361955,41.8793963 C24.7361955,42.3140512 25.0831015,42.6664087 25.5110319,42.6664087 L29.7836736,42.6664087 L29.7836736,46.372291 L21.5878826,46.372291 L21.5878826,24.9542415 C22.328439,24.6009592 22.9618445,24.0519145 23.421758,23.364613 C24.2687623,24.638058 25.6830454,25.4011844 27.196085,25.4011844 C28.7091245,25.4011844 30.1234076,24.638058 30.9704119,23.364613 C31.81786,24.6380462 33.2324205,25.4010945 34.7456989,25.4010945 C36.2589774,25.4010945 37.6735379,24.6380462 38.520986,23.364613 C39.3679903,24.638058 40.7822734,25.4011844 42.2953129,25.4011844 C43.8083525,25.4011844 45.2226356,24.638058 46.0696398,23.364613 C46.9166441,24.638058 48.3309272,25.4011844 49.8439668,25.4011844 C51.3570063,25.4011844 52.7712894,24.638058 53.6182937,23.364613 C54.4655523,24.6382352 55.8802544,25.4012861 57.3935808,25.4008978 C57.885445,25.4003512 58.3739013,25.317992 58.8395579,25.1570898 L58.8414782,46.372291 Z" id="Shape" stroke="#37549A" stroke-width="0.5" fill="#37549A" fill-rule="nonzero"></path>
                                                    <path d="M46.8819219,57.1525077 L56.3873496,57.1525077" id="Shape" stroke="#0BB6EA" stroke-width="1.86666667"></path>
                                                    <path d="M24.2858878,57.1525077 L42.0812008,57.1525077" id="Shape" stroke="#0BB6EA" stroke-width="1.86666667"></path>
                                                </g>
                                            </g>
                                        </g>
                                    </g>
                                </g>
                            </g>
                        </g>
                    </g>
                </g>
            </g>
        </g>
    </g>
</svg>