<?xml version="1.0" encoding="UTF-8"?>
<svg width="270px" height="150px" viewBox="0 0 270 150" version="1.1" xmlns="http://www.w3.org/2000/svg" xmlns:xlink="http://www.w3.org/1999/xlink">
    <!-- Generator: Sketch 55.1 (78136) - https://sketchapp.com -->
    <title>button/business/none-v2</title>
    <desc>Created with Sketch.</desc>
    <g id="Symbols" stroke="none" stroke-width="1" fill="none" fill-rule="evenodd">
        <g id="pages/index-web" transform="translate(-205.000000, -3040.000000)">
            <g id="Group-5" transform="translate(205.000000, 2776.000000)">
                <g id="Group-24">
                    <g id="Group-28">
                        <g id="Group-2" transform="translate(0.000000, 84.000000)">
                            <g id="Group-10">
                                <g id="v2">
                                    <g id="button/business/none-v2" transform="translate(0.000000, 180.000000)">
                                        <g id="colour/outlines/grey-outline" fill="#FFFFFF" stroke="#CCD4E6">
                                            <rect id="Rectangle-2" x="0.5" y="0.5" width="269" height="149" rx="5"></rect>
                                        </g>
                                        <g id="Group-2" transform="translate(0.000000, 28.000000)">
                                            <g id="Group-17" transform="translate(0.000000, 74.000000)" fill="#37549C" font-family="GothamRounded-Medium, Gotham Rounded" font-size="18" font-weight="400" line-spacing="22">
                                                <g id="Group">
                                                    <text id="Retail">
                                                        <tspan x="91.48" y="14">Toko Roti</tspan>
                                                    </text>
                                                </g>
                                            </g>
                                            <g id="icon/business/Bakery" transform="translate(100.000000, 0.000000)">
                                                <g id="Bread" transform="translate(0.000000, 13.020000)">
                                                    <path d="M36.939261,30.4300175 C36.4146252,30.4443834 35.9778407,30.0246996 35.9636755,29.4926273 C35.9495103,28.9605551 36.3633286,28.5175794 36.8879644,28.5032134 C40.256442,28.310533 43.8320059,27.956001 47.5120629,27.4434711 C47.8483884,27.3966612 48.1837897,27.5353779 48.3919245,27.8073679 C48.6000592,28.0793579 48.6493067,28.4432994 48.5211159,28.7620993 C48.3929252,29.0808992 48.1067714,29.3061241 47.7704459,29.352934 C44.0390923,29.8712443 40.4141316,30.2334835 36.9943574,30.4280907 L36.939261,30.4300175 Z" id="Shape" fill="#00B8EC" fill-rule="nonzero"></path>
                                                    <path d="M26.9478207,30.6246247 C9.07000114,30.6246247 1.27861558,25.0561608 0.942337781,24.8076031 C0.530907991,24.4912227 0.44399295,23.899488 0.746636302,23.4752289 C1.04927965,23.0509698 1.63064583,22.9495606 2.05566427,23.2468918 L2.05566427,23.2468918 C2.13735888,23.3066227 10.4493101,29.1833753 29.3416627,28.6631381 C29.6810426,28.653845 29.9995311,28.8288812 30.1771566,29.1223122 C30.3547822,29.4157433 30.3645593,29.7829901 30.202805,30.0857143 C30.0410506,30.3884385 29.7323392,30.5806491 29.3929593,30.5899423 C28.5589144,30.6130639 27.7381685,30.6246247 26.9478207,30.6246247 Z" id="Shape" fill="#00B8EC" fill-rule="nonzero"></path>
                                                    <path d="M35.1476793,37.2586113 C22.9618839,37.2586113 14.3440529,36.4878897 8.80021895,34.8944227 C2.87830996,33.1969082 0,30.4435052 0,26.4839227 C0,7.27946598 21.5578766,0.12138866 35.1476793,0.12138866 C52.6417243,0.12138866 70.2953586,8.00972474 70.2953586,25.6342021 C70.2953586,29.7248072 67.2555594,32.7460361 61.2747542,34.6131093 C55.5656312,36.3934763 47.0180956,37.2586113 35.1476793,37.2586113 Z M35.1476793,2.04819278 C22.2931281,2.04819278 1.89987456,8.68217938 1.89987456,26.4839227 C1.89987456,32.6034526 12.1591972,35.3318072 35.1476793,35.3318072 C46.8262082,35.3318072 55.189456,34.4936474 60.7161911,32.7710845 C65.8838499,31.1602763 68.3954841,28.8249897 68.3954841,25.6419093 C68.3954841,9.34114639 51.6974866,2.04819278 35.1476793,2.04819278 Z" id="Shape" fill="#37549C" fill-rule="nonzero"></path>
                                                    <path d="M17.4959448,16.9443393 C17.0121382,16.9477421 16.6030863,16.5818444 16.5460075,16.0945948 L16.5460075,16.0772536 C16.4871114,15.5839918 16.2857247,13.8151856 16.1660326,11.7303835 C15.9570464,8.02706598 16.9886783,5.3719299 17.1159699,5.07712887 C17.2452736,4.75875274 17.532233,4.53452158 17.8687531,4.4889011 C18.2052732,4.44328061 18.5402287,4.58320164 18.7474451,4.85595728 C18.9546614,5.12871293 19.0026576,5.49286511 18.8733539,5.81124124 C18.8315566,5.91143505 17.8835192,8.28718454 18.0716068,11.6205557 C18.1855993,13.6494804 18.3812863,15.3662629 18.4382826,15.8441103 L18.4382826,15.8691588 C18.4995934,16.397486 18.1270646,16.8762168 17.6061375,16.9385351 C17.5695278,16.9423663 17.5327489,16.9443393 17.4959448,16.9443393 Z" id="Shape" fill="#37549C" fill-rule="nonzero"></path>
                                                    <path d="M35.1476793,14.4857134 C34.6230435,14.4857134 34.197742,14.0543836 34.197742,13.5223113 L34.197742,1.08479072 C34.197742,0.552718455 34.6230435,0.12138866 35.1476793,0.12138866 C35.6723152,0.12138866 36.0976166,0.552718455 36.0976166,1.08479072 L36.0976166,13.5223113 C36.0976166,14.0543836 35.6723152,14.4857134 35.1476793,14.4857134 Z" id="Shape" fill="#37549C" fill-rule="nonzero"></path>
                                                    <path d="M52.6512236,16.1851546 C52.6145171,16.1870747 52.5777374,16.1870747 52.5410309,16.1851546 C52.0226493,16.123719 51.6502238,15.6496526 51.706986,15.1234856 L51.706986,15.0984371 C51.7639822,14.6205897 51.9596693,12.9038072 52.0736618,10.8768093 C52.2636492,7.54151134 51.3137119,5.16576186 51.2719147,5.06749485 C51.082249,4.578393 51.3141038,4.02537567 51.7930124,3.82457894 C52.271921,3.62378221 52.8211432,3.84930963 53.0273988,4.33145567 C53.1470909,4.62240309 54.1787228,7.28331959 53.9773361,10.9866371 C53.8614437,13.0695124 53.6581571,14.8402454 53.5973612,15.3315804 C53.5422264,15.8188902 53.134874,16.1863902 52.6512236,16.1851546 L52.6512236,16.1851546 Z" id="Shape" fill="#37549C" fill-rule="nonzero"></path>
                                                </g>
                                            </g>
                                        </g>
                                    </g>
                                </g>
                            </g>
                        </g>
                    </g>
                </g>
            </g>
        </g>
    </g>
</svg>